<?xml version="1.0" encoding="UTF-8" standalone="no"?>
<svg
   xmlns:dc="http://purl.org/dc/elements/1.1/"
   xmlns:cc="http://creativecommons.org/ns#"
   xmlns:rdf="http://www.w3.org/1999/02/22-rdf-syntax-ns#"
   xmlns:svg="http://www.w3.org/2000/svg"
   xmlns="http://www.w3.org/2000/svg"
   id="svg8"
   version="1.1"
   viewBox="0 0 58.102482 38.73563"
   height="38.73563mm"
   width="58.102482mm">
  <defs
     id="defs2" />
  <metadata
     id="metadata5">
    <rdf:RDF>
      <cc:Work
         rdf:about="">
        <dc:format>image/svg+xml</dc:format>
        <dc:type
           rdf:resource="http://purl.org/dc/dcmitype/StillImage" />
        <dc:title></dc:title>
      </cc:Work>
    </rdf:RDF>
  </metadata>
  <g
     transform="translate(-92.566861,-215.02391)"
     style="display:inline"
     id="layer2">
    <rect
       y="217.27597"
       x="100.31933"
       height="34.231491"
       width="41.973515"
       id="rect4838"
       style="opacity:1;vector-effect:none;fill:none;fill-opacity:1;stroke:#3b82f6;stroke-width:2.29299998;stroke-linecap:butt;stroke-linejoin:miter;stroke-miterlimit:4;stroke-dasharray:none;stroke-dashoffset:0;stroke-opacity:1;paint-order:fill markers stroke" />
    <rect
       y="249.25542"
       x="98.067261"
       height="4.5041223"
       width="4.5041223"
       id="rect4870"
       style="opacity:1;vector-effect:none;fill:#3b82f6;fill-opacity:1;stroke:none;stroke-width:1.8061887;stroke-linecap:butt;stroke-linejoin:miter;stroke-miterlimit:4;stroke-dasharray:none;stroke-dashoffset:0;stroke-opacity:1;paint-order:fill markers stroke" />
    <rect
       y="249.2554"
       x="140.0408"
       height="4.5041223"
       width="4.5041223"
       id="rect4872"
       style="opacity:1;vector-effect:none;fill:#3b82f6;fill-opacity:1;stroke:none;stroke-width:1.80618858;stroke-linecap:butt;stroke-linejoin:miter;stroke-miterlimit:4;stroke-dasharray:none;stroke-dashoffset:0;stroke-opacity:1;paint-order:fill markers stroke" />
    <rect
       y="215.02391"
       x="140.04079"
       height="4.5041223"
       width="4.5041223"
       id="rect4874"
       style="opacity:1;vector-effect:none;fill:#3b82f6;fill-opacity:1;stroke:none;stroke-width:1.80618858;stroke-linecap:butt;stroke-linejoin:miter;stroke-miterlimit:4;stroke-dasharray:none;stroke-dashoffset:0;stroke-opacity:1;paint-order:fill markers stroke" />
    <rect
       y="215.02391"
       x="98.067268"
       height="4.5041223"
       width="4.5041223"
       id="rect4876"
       style="opacity:1;vector-effect:none;fill:#3b82f6;fill-opacity:1;stroke:none;stroke-width:1.80618858;stroke-linecap:butt;stroke-linejoin:miter;stroke-miterlimit:4;stroke-dasharray:none;stroke-dashoffset:0;stroke-opacity:1;paint-order:fill markers stroke" />
  </g>
  <g
     transform="translate(-92.566861,-215.02391)"
     style="display:inline"
     id="layer1">
    <path
       id="path837-2"
       d="m 141.48357,219.97735 c -2.34881,-0.35905 -4.82881,-0.14661 -7.15176,0.0915 -0.31172,0.0406 -0.62269,0.0867 -0.93243,0.14035 -2.11391,0.25181 -4.12661,1.3261 -5.18696,3.22337 -1.39636,1.94811 -1.84556,4.40833 -3.13982,6.38731 -0.97062,0.074 -1.68976,-1.1494 -2.70699,-1.14832 -1.31916,-0.21032 -1.61472,1.25045 -2.05866,2.11956 -0.88735,0.0393 -2.04596,-0.56252 -2.68164,0.50914 -0.99815,1.11565 -0.69111,2.77229 -1.28367,4.01459 -1.34214,-0.048 -2.51974,-1.13988 -3.73074,-1.67342 -2.18581,-1.33845 -4.9582,-1.38797 -7.22885,-0.22392 -3.70504,1.69429 -6.523144,4.76162 -9.395699,7.55999 -1.56561,1.28901 -2.871553,4.80132 -0.05583,5.41114 3.128042,0.73932 6.380569,-1.38999 9.405769,0.19557 1.64046,0.6011 3.31723,2.50941 5.12518,1.24371 1.44606,-1.37598 3.55595,-2.30305 5.33172,-0.8723 1.83869,1.50999 4.00748,0.41531 5.47767,-1.0002 0.70061,-0.62522 1.21556,0.71099 1.72986,0.9764 1.5306,1.48667 3.2304,3.19485 5.43161,3.50228 2.24062,-0.20074 2.00345,-2.89324 1.99549,-4.54075 0.0927,-1.45001 -0.27813,-3.01166 0.0983,-4.41175 1.6803,-0.98525 4.06158,-1.72936 4.21649,-4.04482 -0.59196,-2.48733 1.64369,-3.18525 3.55117,-3.66319 0.85754,-0.14356 1.47732,-0.66453 1.53545,-1.56513 0.73293,-2.26223 1.25522,-4.92213 3.26734,-6.4259 1.4829,-0.7142 3.59773,-2.71662 2.41123,-4.42391 -1.2527,-0.74481 -2.61497,-1.16592 -4.02425,-1.38134 z"
       style="fill:#000000;stroke-width:0.21695949" />
  </g>
  <g
     transform="translate(-92.566861,-215.02391)"
     style="display:inline"
     id="layer3">
    <path
       transform="matrix(0.77811666,0,0,0.90620134,24.688715,28.231605)"
       d="m 136.26172,224.48438 c -0.0628,0.006 -0.24649,0.0487 -0.18555,0.0332 -2e-5,0 0.0304,-0.004 0.043,-0.006 -1.65477,0.34909 -2.58493,1.65229 -3.10156,2.90625 -0.51765,1.25642 -0.78986,2.57512 -1.1875,3.40234 a 0.9077618,0.9077618 0 0 0 -0.008,0.0195 0.9077618,0.9077618 0 0 0 -0.0469,0.13086 c -0.4526,1.05298 -0.73011,2.35797 -1.15234,3.19727 -0.22029,0.43788 -0.45654,0.69756 -0.62696,0.78711 -0.13992,0.0735 -0.37747,0.037 -0.69921,-0.0645 -0.42562,-0.49001 -0.83607,-1.26441 -1.40626,-2.08789 -0.62036,-0.89595 -1.60838,-1.83829 -3.0625,-1.875 -0.0194,-5.8e-4 -0.0392,-6.2e-4 -0.0586,0 a 0.9077618,0.9077618 0 0 0 -0.0293,0 c -1.96407,0.12605 -3.19103,1.51219 -3.96289,2.90625 -0.77027,1.39117 -1.28606,2.8998 -1.90625,3.79102 -6.3e-4,9.2e-4 -0.001,0.003 -0.002,0.004 a 0.9077618,0.9077618 0 0 0 -0.0566,0.0937 0.9077618,0.9077618 0 0 0 -0.002,0.002 c -0.38219,0.70794 -0.61773,0.75004 -0.61719,0.75 0.002,-1.7e-4 -0.18746,-0.0395 -0.47461,-0.38867 -0.57327,-0.69711 -1.16038,-2.27973 -1.26953,-3.06641 a 0.9077618,0.9077618 0 0 0 -0.0527,-0.2168 c -0.80803,-2.09591 -1.12202,-4.77746 -2.7832,-6.99414 -0.77176,-1.15326 -2.18129,-1.44224 -3.25,-1.06445 -1.071,0.37859 -1.95921,1.25804 -2.25781,2.42969 -0.62222,1.29383 -0.99365,2.67144 -1.44531,3.87695 -0.43182,1.1525 -0.96609,2.0749 -1.76563,2.74805 -0.26772,-0.01 -0.50326,-0.0217 -0.66406,-0.16016 -0.21315,-0.18358 -0.43994,-0.54951 -0.64258,-1.05078 -0.39291,-0.97195 -0.63126,-2.34655 -1.44727,-3.45508 -0.63738,-1.19062 -1.92576,-1.70569 -3.097651,-1.62695 -1.177657,0.0791 -2.364719,0.7058 -2.935547,1.87891 -0.685862,0.98912 -1.095963,2.27812 -1.59375,3.0625 -0.258905,0.40797 -0.510073,0.61251 -0.634766,0.65625 -0.126065,0.0442 -0.262395,0.0834 -0.751953,-0.25977 l 0.228516,0.23437 c -0.509644,-0.74886 -1.280784,-1.50766 -2.185547,-2.05468 -0.794458,-0.48033 -1.781341,-0.73771 -2.748047,-0.45117 -0.361663,-0.0204 -0.706921,0.0823 -0.929687,0.33593 -0.276391,0.31477 -0.269173,0.77422 -0.164063,1.16211 l -0.08984,-0.21484 c -1.66e-4,0.005 8e-5,0.0104 0,0.0156 l -0.0039,-0.0215 c -6.42e-4,0.02 -6.42e-4,0.0405 0,0.0605 a 0.9077618,0.9077618 0 0 0 0.07031,0.32031 0.9077618,0.9077618 0 0 0 0,0.002 c 2.52e-4,6e-4 -2.54e-4,0.001 0,0.002 a 0.9077618,0.9077618 0 0 0 0.01562,0.0332 0.9077618,0.9077618 0 0 0 0.03906,0.0742 0.9077618,0.9077618 0 0 0 0.0039,0.006 0.9077618,0.9077618 0 0 0 0.04492,0.0703 0.9077618,0.9077618 0 0 0 0.0039,0.006 0.9077618,0.9077618 0 0 0 0.05273,0.0644 0.9077618,0.9077618 0 0 0 0.0039,0.006 0.9077618,0.9077618 0 0 0 0.002,0 0.9077618,0.9077618 0 0 0 0.0039,0.006 c 6.28e-4,6.9e-4 0.0013,0.001 0.002,0.002 0.0012,0.001 0.0027,0.003 0.0039,0.004 9.56e-4,0.001 0.0029,9.3e-4 0.0039,0.002 0.01465,0.0156 0.02924,0.0304 0.04492,0.0449 6.75e-4,6.3e-4 0.0013,0.001 0.002,0.002 0.0014,0.001 0.0025,0.003 0.0039,0.004 0.001,9.4e-4 9.38e-4,0.003 0.002,0.004 0.001,9.5e-4 0.0029,0.001 0.0039,0.002 0.001,9.5e-4 0.0029,0.001 0.0039,0.002 a 0.9077618,0.9077618 0 0 0 0.06641,0.0566 0.9077618,0.9077618 0 0 0 0.0039,0.002 0.9077618,0.9077618 0 0 0 0.07031,0.0488 0.9077618,0.9077618 0 0 0 0.0039,0.002 0.9077618,0.9077618 0 0 0 0.07617,0.041 0.9077618,0.9077618 0 0 0 0.0039,0.002 0.9077618,0.9077618 0 0 0 0.08008,0.0312 0.9077618,0.9077618 0 0 0 0.0039,0.002 0.9077618,0.9077618 0 0 0 0.08398,0.0234 0.9077618,0.9077618 0 0 0 0.130859,0.0254 c 0.0013,1.3e-4 0.0026,-1.2e-4 0.0039,0 0.685872,0.0745 1.213335,0.42945 1.84375,0.97852 0.565108,0.4922 1.223765,1.11207 2.041015,1.60742 l -0.0098,-0.004 c 0.01914,0.0211 0.03957,0.0413 0.06055,0.0606 a 0.9077618,0.9077618 0 0 0 0.185547,0.12891 c 9.18e-4,4.8e-4 0.001,0.001 0.002,0.002 a 0.9077618,0.9077618 0 0 0 0.0059,0.004 0.9077618,0.9077618 0 0 0 0.07031,0.0332 0.9077618,0.9077618 0 0 0 0.0098,0.004 0.9077618,0.9077618 0 0 0 0.01953,0.008 c 0.0021,7.8e-4 0.0038,-7.8e-4 0.0059,0 a 0.9077618,0.9077618 0 0 0 0.28125,0.0547 c 0.02007,6.5e-4 0.04048,6.5e-4 0.06055,0 l -0.103516,-0.043 c 1.629587,0.4972 3.130368,-0.0733 4.066406,-1.06446 0.946199,-1.00194 1.523419,-2.28517 1.96875,-3.33593 0.410118,-0.60876 0.646051,-0.66042 0.615234,-0.66016 -0.03165,2.6e-4 0.129101,0.0342 0.384766,0.38086 0.510432,0.6922 1.031762,2.16886 1.347652,3.05664 a 0.9077618,0.9077618 0 0 0 0.0273,0.0664 l 0.002,0.002 a 0.9077618,0.9077618 0 0 0 0.1582,0.24023 c 0.007,0.007 0.0144,0.0143 0.0215,0.0215 0.91866,1.71139 2.83035,2.60096 4.62109,2.03711 0.013,1.2e-4 0.0261,4.1e-4 0.0391,0 a 0.9077618,0.9077618 0 0 0 0.33203,-0.0742 0.9077618,0.9077618 0 0 0 0.0293,-0.0117 c 1.6407,-0.78089 2.53607,-2.20934 3.14649,-3.61524 0.61026,-1.40554 1.00337,-2.84712 1.56836,-3.92578 a 0.9077618,0.9077618 0 0 0 0.006,-0.0137 c 0.2869,-0.57045 0.48291,-0.60998 0.4375,-0.60156 -0.0436,0.008 0.005,-0.026 0.20312,0.18164 0.39542,0.41349 0.86657,1.60268 0.89453,2.1875 a 0.9077618,0.9077618 0 0 0 0.004,0.043 0.9077618,0.9077618 0 0 0 0,0.002 c 2.3e-4,0.003 -2.5e-4,0.005 0,0.008 a 0.9077618,0.9077618 0 0 0 0.004,0.0332 0.9077618,0.9077618 0 0 0 0,0.004 0.9077618,0.9077618 0 0 0 0.0176,0.0859 0.9077618,0.9077618 0 0 0 0.0117,0.043 0.9077618,0.9077618 0 0 0 0.0156,0.0469 0.9077618,0.9077618 0 0 0 0.01,0.0293 c 0.94658,2.44492 1.26856,5.7496 3.65039,8.07813 0.002,0.002 0.003,0.005 0.006,0.008 0.008,0.008 0.0169,0.0157 0.0254,0.0234 a 0.9077618,0.9077618 0 0 0 0.27344,0.17187 0.9077618,0.9077618 0 0 0 0.30859,0.0664 c 0.001,4.1e-4 0.003,-4.1e-4 0.004,0 0.89922,0.29308 1.78582,0.31257 2.52539,0.008 0.82333,-0.33928 1.44075,-0.95217 1.94141,-1.62305 0.99358,-1.33153 1.61726,-2.98413 2.15234,-3.95898 2.1e-4,-3.7e-4 -2e-4,-0.002 0,-0.002 a 0.9077618,0.9077618 0 0 0 0.0117,-0.0234 0.9077618,0.9077618 0 0 0 0.10547,-0.3086 v -0.002 c 0.12715,-0.78567 0.69167,-1.23782 1.13086,-1.32031 0.22073,-0.0415 0.38706,-0.0104 0.54492,0.0977 0.15725,0.10767 0.34315,0.32125 0.46289,0.80274 a 0.9077618,0.9077618 0 0 0 0.0195,0.0723 c 0.60458,1.80376 2.25502,2.82945 3.89453,2.90821 1.6345,0.0785 3.36993,-0.85185 3.99219,-2.70899 1.20687,-2.49128 1.77801,-5.07327 2.83008,-7.26172 0.1521,0.009 0.37228,-0.0529 0.48633,0.0566 0.19462,0.18692 0.44312,0.67607 0.62304,1.33007 0.3598,1.30779 0.40792,3.0842 1.15235,4.41407 l -0.0664,-0.15235 c 0.28999,0.85879 0.55672,1.95319 1.03516,3.00586 0.47997,1.05603 1.22511,2.11782 2.47461,2.67774 a 0.9077618,0.9077618 0 0 0 0.17968,0.0586 c 1.83386,0.41652 3.34552,-0.45067 4.35157,-1.53906 1.00577,-1.0881 1.71844,-2.40606 2.38281,-3.26367 a 0.9077618,0.9077618 0 0 0 0.0391,-0.0527 c 0.29612,-0.44071 0.42428,-0.44963 0.52344,-0.45508 0.0959,-0.005 0.33736,0.0624 0.66211,0.3086 0.64771,0.49106 1.40799,1.51751 2.0293,2.21875 a 0.9077618,0.9077618 0 0 0 0.008,0.008 c 0.83488,0.92183 1.92654,1.35038 2.95703,1.38476 1.02912,0.0343 1.9954,-0.28288 2.7832,-0.77539 a 0.9077618,0.9077618 0 0 0 0.006,-0.004 c 1.33721,-0.84897 2.3012,-1.89407 3.33203,-2.30469 a 0.9077618,0.9077618 0 0 0 0.0527,-0.0234 0.9077618,0.9077618 0 0 0 0.0742,-0.0391 0.9077618,0.9077618 0 0 0 0.006,-0.004 0.9077618,0.9077618 0 0 0 0.0703,-0.0449 0.9077618,0.9077618 0 0 0 0.006,-0.004 0.9077618,0.9077618 0 0 0 0.0644,-0.0527 0.9077618,0.9077618 0 0 0 0.01,-0.01 c 6.7e-4,-6.2e-4 0.001,-0.001 0.002,-0.002 l 0.002,-0.002 0.002,-0.002 0.0488,-0.0508 c 6.4e-4,-6.7e-4 0.001,-0.001 0.002,-0.002 9.4e-4,-0.001 0.003,-9.5e-4 0.004,-0.002 6.2e-4,-6.7e-4 0.001,-0.001 0.002,-0.002 l 0.002,-0.002 c 6.2e-4,-6.7e-4 0.001,-0.001 0.002,-0.002 a 0.9077618,0.9077618 0 0 0 0.15039,-0.22461 0.9077618,0.9077618 0 0 0 0.004,-0.008 0.9077618,0.9077618 0 0 0 0.002,-0.004 0.9077618,0.9077618 0 0 0 0.0293,-0.0723 0.9077618,0.9077618 0 0 0 0.002,-0.006 0.9077618,0.9077618 0 0 0 0.002,-0.006 0.9077618,0.9077618 0 0 0 0.0254,-0.084 0.9077618,0.9077618 0 0 0 0,-0.004 0.9077618,0.9077618 0 0 0 0.006,-0.0312 0.9077618,0.9077618 0 0 0 0.01,-0.0527 0.9077618,0.9077618 0 0 0 0.01,-0.0723 c 7e-4,-0.011 -3.2e-4,-0.0222 0,-0.0332 v -0.0605 a 0.9077618,0.9077618 0 0 0 -0.002,-0.0508 c -0.0405,-0.45641 -0.26849,-0.9715 -0.71289,-1.23243 -0.43672,-0.25644 -0.86746,-0.21297 -1.17968,-0.14257 -0.62543,0.14103 -1.0825,0.45527 -1.36133,0.64062 a 0.9077618,0.9077618 0 0 0 -0.0449,0.0332 c -4.3e-4,3.3e-4 -0.002,-3.2e-4 -0.002,0 -0.83042,0.62864 -1.8566,1.43442 -2.67968,1.7461 -0.41226,0.1561 -0.73544,0.18494 -0.97266,0.12304 -0.2401,-0.0626 -0.47744,-0.19903 -0.77539,-0.68554 a 0.9077618,0.9077618 0 0 0 -0.0547,-0.0801 l -0.01,-0.0117 c -0.43377,-0.56596 -0.95024,-1.30883 -1.60743,-1.96484 -0.66044,-0.65928 -1.50984,-1.27023 -2.5957,-1.35547 a 0.9077618,0.9077618 0 0 0 -0.041,-0.002 c -0.0201,-6.5e-4 -0.0404,-6.5e-4 -0.0605,0 a 0.9077618,0.9077618 0 0 0 -0.54492,0.20312 c -1.56702,0.39515 -2.65204,1.44388 -3.40235,2.52734 -0.78765,1.13738 -1.42737,2.19142 -2.21289,2.82227 -0.26348,0.0416 -0.46315,0.055 -0.60156,-0.0469 -0.17434,-0.12829 -0.40107,-0.45217 -0.59375,-0.92968 -0.38293,-0.94903 -0.57047,-2.33214 -1.07031,-3.43164 l 0.0195,0.043 c -0.37322,-1.00599 -0.58537,-2.26244 -0.96289,-3.53321 -0.37802,-1.27241 -0.95587,-2.6023 -2.16797,-3.57617 a 0.9077618,0.9077618 0 0 0 -0.0488,-0.0371 c -0.74834,-0.5253 -1.50484,-0.39774 -1.83594,-0.41601 -0.022,-0.001 -0.0444,-1.4e-4 -0.0664,0 -0.0182,1.1e-4 -0.0366,-0.001 -0.0547,0 z m 2.00586,0.45312 0.10156,0.0957 c -0.0191,-0.0209 -0.0396,-0.0414 -0.0605,-0.0605 a 0.9077618,0.9077618 0 0 0 -0.041,-0.0352 z m 3.97265,14.28125 c -1.30049,-0.12185 4.39049,0.46805 0.25586,0.0215 -0.21283,-0.0179 -0.09,-0.008 -0.25586,-0.0215 z m -0.17968,-0.0586 -0.29883,-0.2168 c 0.0191,0.0209 0.0396,0.0414 0.0606,0.0605 a 0.9077618,0.9077618 0 0 0 0.23828,0.15625 z m -6.22071,-14.53907 a 0.9077618,0.9077618 0 0 0 -0.0391,0.0254 c 0.0135,-0.009 0.0288,-0.019 0.0391,-0.0254 z m -0.0625,0.043 a 0.9077618,0.9077618 0 0 0 -0.10351,0.0898 c -8e-5,7e-5 0.0925,-0.0803 0.10351,-0.0898 z m -47.646481,10.13672 c 0.01758,0 0.09701,0 0.119141,0 l -0.07813,0.002 z"
       id="path4832"
       style="display:inline;fill:#10b981;fill-opacity:1;stroke-width:0.26458335" />
  </g>
</svg>
